<svg xmlns="http://www.w3.org/2000/svg" xmlns:xlink="http://www.w3.org/1999/xlink" aria-hidden="true" role="img" class="iconify iconify--logos" width="31.88" height="32" preserveAspectRatio="xMidYMid meet" viewBox="0 0 756 657">
<path d="M0 0 C243.87 0 487.74 0 739 0 C739 214.5 739 429 739 650 C495.13 650 251.26 650 0 650 C0 435.5 0 221 0 0 Z " fill="#B0ACAC" transform="translate(0,0)"/>
<path d="M0 0 C243.87 0 487.74 0 739 0 C739 214.5 739 429 739 650 C738.01 650 737.02 650 736 650 C736 484.01 736 318.02 736 147 C493.45 147 250.9 147 1 147 C1 312.99 1 478.98 1 650 C0.67 650 0.34 650 0 650 C0 435.5 0 221 0 0 Z " fill="#5DC44F" transform="translate(0,0)"/>
<path d="M0 0 C74.25 0 148.5 0 225 0 C225 50.16 225 100.32 225 152 C150.75 152 76.5 152 0 152 C0 101.84 0 51.68 0 0 Z " fill="#F6F6F6" transform="translate(496,483)"/>
<path d="M0 0 C74.25 0 148.5 0 225 0 C225 50.16 225 100.32 225 152 C150.75 152 76.5 152 0 152 C0 101.84 0 51.68 0 0 Z " fill="#F6F6F6" transform="translate(256,483)"/>
<path d="M0 0 C74.25 0 148.5 0 225 0 C225 50.16 225 100.32 225 152 C150.75 152 76.5 152 0 152 C0 101.84 0 51.68 0 0 Z " fill="#F6F6F6" transform="translate(16,483)"/>
<path d="M0 0 C74.25 0 148.5 0 225 0 C225 50.16 225 100.32 225 152 C150.75 152 76.5 152 0 152 C0 101.84 0 51.68 0 0 Z " fill="#F6F6F6" transform="translate(496,150)"/>
<path d="M0 0 C74.25 0 148.5 0 225 0 C225 50.16 225 100.32 225 152 C150.75 152 76.5 152 0 152 C0 101.84 0 51.68 0 0 Z " fill="#F6F6F6" transform="translate(16,150)"/>
<path d="M0 0 C74.25 0 148.5 0 225 0 C225 49.83 225 99.66 225 151 C150.75 151 76.5 151 0 151 C0 101.17 0 51.34 0 0 Z " fill="#F7F7F7" transform="translate(496,317)"/>
<path d="M0 0 C74.25 0 148.5 0 225 0 C225 49.83 225 99.66 225 151 C150.75 151 76.5 151 0 151 C0 101.17 0 51.34 0 0 Z " fill="#F7F7F7" transform="translate(256,317)"/>
<path d="M0 0 C74.25 0 148.5 0 225 0 C225 49.83 225 99.66 225 151 C150.75 151 76.5 151 0 151 C0 101.17 0 51.34 0 0 Z " fill="#F7F7F7" transform="translate(16,317)"/>
<path d="M0 0 C74.25 0 148.5 0 225 0 C225 49.83 225 99.66 225 151 C150.75 151 76.5 151 0 151 C0 101.17 0 51.34 0 0 Z " fill="#F6F6F6" transform="translate(256,151)"/>
<path d="M0 0 C1.98 0 3.96 0 6 0 C5.69201674 1.48011371 5.378482 2.95907325 5.0625 4.4375 C4.88847656 5.26121094 4.71445313 6.08492188 4.53515625 6.93359375 C4 9 4 9 3 10 C2.90391337 11.64490549 2.87812213 13.29395691 2.87974548 14.94166565 C2.87837082 16.01163788 2.87699615 17.08161011 2.87557983 18.18400574 C2.87917511 19.36795425 2.88277039 20.55190277 2.88647461 21.77172852 C2.88632858 23.010578 2.88618256 24.24942749 2.8860321 25.52581787 C2.88661108 28.93269833 2.89164041 32.33951884 2.89860606 35.74638867 C2.90484007 39.30316826 2.90544344 42.85994858 2.90663147 46.41673279 C2.90974465 53.15636582 2.91795785 59.89598271 2.92798096 66.63560861 C2.93914252 74.30658398 2.94465265 81.97756011 2.94967639 89.64854157 C2.96014048 105.43237041 2.97773965 121.21618313 3 137 C14.09345949 137.56269229 25.17644293 138.12377755 36.28515625 138.24609375 C38.50984881 138.2778688 40.73453948 138.30977634 42.95922852 138.34179688 C44.68727219 138.36487915 44.68727219 138.36487915 46.45022583 138.38842773 C52.8940721 138.47596653 59.33769309 138.57700303 65.78125 138.68359375 C66.80701488 138.70054857 66.80701488 138.70054857 67.85350227 138.71784592 C79.1436454 138.90754159 90.43107377 139.17107132 101.71875 139.47265625 C102.51861265 139.49400572 103.3184753 139.51535519 104.14257622 139.53735161 C111.95080103 139.74665099 119.75884029 139.96203227 127.56666046 140.18591565 C181.70124454 141.73264656 235.80175609 142.13811767 289.95431197 142.07177657 C299.48748298 142.06042284 309.02065414 142.0560967 318.55383066 142.05223143 C335.58121899 142.04524335 352.60860237 142.03450371 369.63598633 142.02050781 C371.14914894 142.01926609 371.14914894 142.01926609 372.69288049 142.01799929 C379.85775374 142.01209525 387.02262688 142.00605536 394.1875 142 C402.41967765 141.99305469 410.65185535 141.98619322 418.8840332 141.97949219 C419.89970319 141.97866406 420.91537318 141.97783593 421.96182104 141.97698271 C438.97840224 141.9632341 455.99498354 141.95351286 473.01156884 141.94658184 C483.42891698 141.94214721 493.84625048 141.93420663 504.2635918 141.92143703 C511.39533388 141.9129251 518.52707264 141.90810101 525.65881946 141.90601182 C529.74803449 141.9046865 533.83723062 141.90180963 537.92643929 141.89425278 C558.30610027 141.85785341 578.63503253 142.19853332 599 143 C599 142.34 599 141.68 599 141 C613.52162028 140.0796147 627.98777955 139.87488686 642.53619766 139.92483521 C646.34411423 139.93779369 650.15199533 139.94416141 653.95993042 139.94897461 C662.01497103 139.96028529 670.06997875 139.9795678 678.125 140 C687.52863217 140.02371967 696.93224663 140.04394729 706.33590317 140.05593872 C710.09074854 140.06242731 713.84554364 140.07492225 717.60037231 140.08764648 C719.88087927 140.09127553 722.1613867 140.09462769 724.44189453 140.09765625 C725.48796875 140.10282257 726.53404297 140.10798889 727.61181641 140.11331177 C728.56170441 140.11338226 729.51159241 140.11345276 730.49026489 140.11352539 C731.73167079 140.11685631 731.73167079 140.11685631 732.99815559 140.12025452 C735.07305208 140.12713047 735.07305208 140.12713047 737 139 C737.33 93.13 737.66 47.26 738 0 C738.33 0 738.66 0 739 0 C739 214.5 739 429 739 650 C738.01 650 737.02 650 736 650 C736 484.01 736 318.02 736 147 C493.45 147 250.9 147 1 147 C1 312.99 1 478.98 1 650 C0.67 650 0.34 650 0 650 C0 435.5 0 221 0 0 Z " fill="#2A5E26" transform="translate(0,0)"/>
<path d="M0 0 C0.99 0 1.98 0 3 0 C3 45.87 3 91.74 3 139 C-0.49379463 139.87344866 -3.05508898 140.13511675 -6.60614014 140.15821838 C-7.74754959 140.1680072 -8.88895905 140.17779602 -10.06495667 140.18788147 C-11.93690956 140.19651466 -11.93690956 140.19651466 -13.84667969 140.20532227 C-15.82265388 140.22017166 -15.82265388 140.22017166 -17.83854675 140.23532104 C-21.44767958 140.26233376 -25.05682543 140.28336296 -28.66600323 140.30332303 C-32.43900101 140.32520502 -36.21195881 140.35258288 -39.98492432 140.37937927 C-47.12816982 140.42927624 -54.27143755 140.47422618 -61.4147265 140.51740164 C-69.54770177 140.56679962 -77.68063691 140.62170825 -85.81357336 140.67708123 C-102.54234524 140.79085529 -119.27115391 140.89770428 -136 141 C-136 141.66 -136 142.32 -136 143 C-183.01342477 143.0462805 -230.02684704 143.08126913 -277.04029029 143.10213066 C-282.65340646 143.1046306 -288.26652257 143.10721938 -293.87963867 143.10986328 C-294.9966094 143.1103879 -296.11358013 143.11091252 -297.26439846 143.11145304 C-315.09822101 143.12003869 -332.93203 143.1357392 -350.76584464 143.15430559 C-369.21150461 143.17334161 -387.65715775 143.18418569 -406.10282713 143.18817699 C-416.40167811 143.19062061 -426.70050119 143.19629053 -436.99934196 143.21146011 C-504.60564112 143.30799522 -572.16095203 142.24390656 -639.74006993 140.32686508 C-655.31335861 139.88843816 -670.88917734 139.66309289 -686.46704102 139.44775391 C-700.66799746 139.24806298 -714.82834028 138.96900237 -729 138 C-727 136 -727 136 -724.10546875 135.83984375 C-722.16607422 135.88818359 -722.16607422 135.88818359 -720.1875 135.9375 C-713.66955252 136.05932563 -707.1866985 135.92494253 -700.67372131 135.65609741 C-683.39460959 134.94369178 -666.13524307 134.84460841 -648.84399414 134.86962891 C-644.86483748 134.87531908 -640.88574848 134.87202984 -636.90659428 134.86605644 C-633.73058102 134.86235493 -630.55458248 134.86363206 -627.37856865 134.86618423 C-625.91571481 134.86682767 -624.45285939 134.86612199 -622.9900074 134.86370468 C-613.03737192 134.85084881 -603.10795457 135.11605039 -593.16186523 135.47363281 C-575.54820831 136.0968455 -557.93546564 136.35454066 -540.3125 136.5546875 C-539.42632996 136.56504957 -538.54015991 136.57541163 -537.62713623 136.5860877 C-483.4507514 137.21846863 -429.27028878 137.15241977 -375.0910697 137.12946185 C-364.24348945 137.12495401 -353.39591992 137.12580329 -342.54833984 137.13037109 C-329.68952194 137.1357839 -316.83071029 137.13779935 -303.9718914 137.13475883 C-302.59006627 137.13444052 -301.20824115 137.13412614 -299.82641602 137.13381577 C-298.80861406 137.13358435 -298.80861406 137.13358435 -297.77025044 137.13334826 C-293.12360618 137.13250602 -288.47696623 137.13394686 -283.83032227 137.13629532 C-258.65996833 137.14724769 -233.49749483 137.09172152 -208.33203125 136.55419922 C-207.39190374 136.5347872 -206.45177624 136.51537518 -205.48316002 136.49537492 C-197.05618219 136.3159455 -188.65418944 136.08869092 -180.2467041 135.47344971 C-172.40247726 134.90613817 -164.58012284 134.85895475 -156.72070312 134.87060547 C-155.15351318 134.86924622 -153.58632356 134.86746337 -152.01913452 134.86529541 C-147.81306721 134.86078631 -143.60702478 134.86248261 -139.40095711 134.8656745 C-134.97868921 134.86822856 -130.55642327 134.86585248 -126.13415527 134.86428833 C-118.7206179 134.86247699 -111.30709054 134.86484725 -103.89355469 134.86962891 C-95.33475589 134.87508563 -86.77598087 134.8732945 -78.21718264 134.8678025 C-70.84273211 134.86326097 -63.46828873 134.86262544 -56.09383726 134.86524117 C-51.70021392 134.86679615 -47.30660174 134.86701877 -42.91297913 134.86370468 C-38.78916943 134.86081029 -34.6653904 134.86283045 -30.54158401 134.86859894 C-29.03193335 134.86991743 -27.52228009 134.86954793 -26.01263046 134.86733627 C-23.94674032 134.86458927 -21.88094748 134.86804883 -19.81506348 134.87301636 C-18.08412319 134.8735819 -18.08412319 134.8735819 -16.31821442 134.87415886 C-13 135 -13 135 -9.21858978 135.55090523 C-6.12093965 136.20991374 -6.12093965 136.20991374 -3.6875 135.3125 C-1.6025662 133.69088482 -0.98719788 132.44908907 0 130 C0.29374423 127.41992041 0.29374423 127.41992041 0.24050903 124.5836792 C0.24325836 123.48434052 0.24600769 122.38500183 0.24884033 121.25234985 C0.24164978 120.05113495 0.23445923 118.84992004 0.22705078 117.61230469 C0.22748886 115.70948227 0.22748886 115.70948227 0.22793579 113.76821899 C0.22850949 110.29330333 0.21675241 106.8185258 0.20278788 103.34364223 C0.19028342 99.71081175 0.18911024 96.07797808 0.18673706 92.44512939 C0.18052145 85.56745122 0.16410955 78.68983665 0.14403808 71.81218648 C0.12168159 63.98153824 0.11068628 56.15088696 0.10064721 48.32021475 C0.07974339 32.21343927 0.04456585 16.10672775 0 0 Z " fill="#468134" transform="translate(735,0)"/>
<path d="M0 0 C0.33 0 0.66 0 1 0 C1 214.5 1 429 1 650 C0.01 650 -0.98 650 -2 650 C-2 484.01 -2 318.02 -2 147 C-1.34 147 -0.68 147 0 147 C0 98.49 0 49.98 0 0 Z " fill="#000000" transform="translate(738,0)"/>
<path d="M0 0 C1.90523186 -0.00021904 1.90523186 -0.00021904 3.84895325 -0.0004425 C7.27772247 -0.00072529 10.70645553 0.00508614 14.13521647 0.01213145 C17.73862565 0.01845272 21.34203597 0.01897564 24.94544983 0.02015686 C31.74482386 0.02324463 38.54418149 0.031423 45.34354836 0.04150635 C53.09465334 0.05274756 60.84575918 0.05819797 68.5968703 0.06320179 C84.51909811 0.07360822 100.44130962 0.09115733 116.36352539 0.11352539 C116.36352539 0.77352539 116.36352539 1.43352539 116.36352539 2.11352539 C119.99352539 2.11352539 123.62352539 2.11352539 127.36352539 2.11352539 C127.36352539 2.44352539 127.36352539 2.77352539 127.36352539 3.11352539 C103.61418185 3.83645903 79.86929611 4.22685862 56.10961914 4.39477539 C55.44177666 4.39954391 54.77393418 4.40431244 54.08585405 4.40922546 C44.35883957 4.47841185 34.63178278 4.54034362 24.90470886 4.60050201 C13.83041631 4.66906018 2.7561449 4.74009163 -8.31808758 4.81780005 C-9.70520038 4.82748928 -11.09231397 4.83706742 -12.47942829 4.84653711 C-26.77040186 4.94414099 -41.06016577 5.049616 -55.34838867 5.36303711 C-56.87769941 5.39654927 -56.87769941 5.39654927 -58.43790531 5.43073845 C-59.97739668 5.46461505 -59.97739668 5.46461505 -61.54798889 5.49917603 C-106.74982575 6.49204719 -151.96617323 6.26424696 -197.17631072 6.24209428 C-207.07759355 6.23775418 -216.97886364 6.24085622 -226.88014567 6.24572289 C-236.58017875 6.25029403 -246.28020642 6.25088635 -255.98024023 6.24828422 C-261.71146593 6.24674837 -267.44268312 6.2464525 -273.17390823 6.24982071 C-295.97226956 6.26143039 -318.72569377 6.17380427 -341.50682259 5.22790146 C-347.07056898 5.02456913 -352.63641651 4.92878098 -358.20288086 4.83227539 C-359.34535687 4.81229177 -360.48783289 4.79230816 -361.66492939 4.77171898 C-365.93770069 4.69827166 -370.2105368 4.6292487 -374.48339844 4.5612793 C-388.88562703 4.32814008 -403.25308584 3.89567495 -417.63647461 3.11352539 C-417.63647461 2.78352539 -417.63647461 2.45352539 -417.63647461 2.11352539 C-416.57400892 2.11409497 -416.57400892 2.11409497 -415.49007928 2.11467606 C-373.29237458 2.13716754 -331.09467058 2.15426871 -288.89696106 2.16459072 C-283.80394733 2.16584108 -278.71093363 2.16713544 -273.61791992 2.16845703 C-272.60420533 2.16871934 -271.59049075 2.16898165 -270.54605754 2.16925191 C-254.23945254 2.17357578 -237.93285116 2.18144482 -221.62624829 2.19067819 C-204.83178208 2.20010684 -188.03731773 2.20560025 -171.24284899 2.20761389 C-161.83598217 2.20885005 -152.42912288 2.21179308 -143.02225876 2.21925545 C-95.31011325 2.30660438 -95.31011325 2.30660438 -47.60375977 1.66992188 C-46.69993018 1.65045002 -45.79610059 1.63097817 -44.86488223 1.61091626 C-36.82911886 1.42998265 -28.82114308 1.16070802 -20.80329895 0.58584595 C-13.8586792 0.08831426 -6.96039599 -0.02154193 0 0 Z " fill="#5C953A" transform="translate(575.636474609375,134.886474609375)"/>
<path d="M0 0 C72.27 0 144.54 0 219 0 C219 0.33 219 0.66 219 1 C220.10087952 0.99666908 220.10087952 0.99666908 221.22399902 0.99327087 C228.16752302 0.97316738 235.11104263 0.95797479 242.05458832 0.94818783 C245.62364451 0.94298699 249.19267649 0.93594064 252.76171875 0.92456055 C256.21116878 0.91363161 259.66059563 0.90770212 263.11006165 0.90512276 C265.05527511 0.90239765 267.00047937 0.89460172 268.94567871 0.88670349 C275.06206168 0.88631872 280.95486108 1.04637274 287 2 C287 2.33 287 2.66 287 3 C253.75423905 3.90160342 220.52918257 4.1511339 187.2722168 4.1343255 C183.23933792 4.13278454 179.20646287 4.13289883 175.17358398 4.13381577 C174.49137885 4.133969 173.80917372 4.13412223 173.1062957 4.13428011 C171.71735016 4.13460006 170.32840462 4.13492428 168.93945909 4.1352527 C156.04956752 4.13807302 143.15968317 4.13488013 130.2697928 4.12945233 C119.43425268 4.12502842 108.59872349 4.12577415 97.76318359 4.13037109 C31.1700614 4.15789177 -35.41310046 4.03713646 -102 3 C-102 2.34 -102 1.68 -102 1 C-68.34 1 -34.68 1 0 1 C0 0.67 0 0.34 0 0 Z " fill="#6EAE44" transform="translate(260,134)"/>
<path d="M0 0 C4.45903567 0.00566188 8.91801113 0.00234073 13.37704468 -0.0034523 C34.40024281 -0.02643208 55.37551461 0.23338667 76.38134766 1.13037109 C76.38134766 1.79037109 76.38134766 2.45037109 76.38134766 3.13037109 C77.58041748 3.12457031 78.7794873 3.11876953 80.01489258 3.11279297 C94.91319963 3.06441369 109.79921813 3.32177069 124.69384766 3.63037109 C127.10334903 3.67873966 129.51285423 3.72691781 131.92236328 3.77490234 C137.74207056 3.89120502 143.56172677 4.00982648 149.38134766 4.13037109 C149.38134766 4.46037109 149.38134766 4.79037109 149.38134766 5.13037109 C131.10351928 5.15415592 112.82569513 5.17156648 94.54785442 5.18218327 C86.05346329 5.18725261 77.55908209 5.19413743 69.06469727 5.20581055 C35.4237349 5.25103254 1.78798094 5.25554881 -31.84912109 4.68896484 C-33.05210657 4.66943316 -34.25509205 4.64990147 -35.49453163 4.62977791 C-48.89052302 4.40521336 -62.24860573 4.00851751 -75.61865234 3.13037109 C-73.61865234 1.13037109 -73.61865234 1.13037109 -70.47802734 0.97021484 C-69.10806084 0.99431091 -67.73823785 1.02756737 -66.36865234 1.06787109 C-60.88592867 1.16786066 -55.45121264 1.11172201 -49.97729492 0.78646851 C-33.33529829 -0.18708583 -16.66336337 -0.02143054 0 0 Z " fill="#3E8D3A" transform="translate(81.61865234375,134.86962890625)"/>
<path d="M0 0 C0.99 0 1.98 0 3 0 C3 45.87 3 91.74 3 139 C-0.6785733 139.91964332 -3.44499076 140.12668681 -7.20214844 140.12939453 C-9.08495514 140.13412277 -9.08495514 140.13412277 -11.00579834 140.13894653 C-12.37365758 140.1371558 -13.74151651 140.13510461 -15.109375 140.1328125 C-16.519389 140.13348668 -17.9294029 140.13445766 -19.3394165 140.13571167 C-22.29497382 140.13718518 -25.25050089 140.13504649 -28.20605469 140.13037109 C-31.97622992 140.12469495 -35.74633363 140.12794154 -39.5165062 140.13394356 C-42.43003873 140.13757643 -45.34355464 140.13639775 -48.25708771 140.13381577 C-49.64601907 140.13315293 -51.03495199 140.1339522 -52.42388153 140.13629532 C-59.36742984 140.14543333 -66.13481361 140.09421378 -73 139 C-73 138.67 -73 138.34 -73 138 C-58.15 137.505 -58.15 137.505 -43 137 C-43 136.67 -43 136.34 -43 136 C-38.8559889 135.83117701 -34.71175936 135.67075853 -30.56713867 135.51782227 C-29.15982506 135.46474349 -27.75259322 135.40944512 -26.34545898 135.35180664 C-24.31251659 135.26893235 -22.2794053 135.19428004 -20.24609375 135.12109375 C-19.02591553 135.0739624 -17.8057373 135.02683105 -16.54858398 134.97827148 C-12.94325157 135.00034748 -9.56208398 135.48147741 -6 136 C-3.33565384 135.20789709 -2.37843427 134.60508258 -0.90956306 132.2564888 C0.18193295 129.5486518 0.24614302 127.50208358 0.24050903 124.5836792 C0.24325836 123.48434052 0.24600769 122.38500183 0.24884033 121.25234985 C0.24164978 120.05113495 0.23445923 118.84992004 0.22705078 117.61230469 C0.22734283 116.34375641 0.22763489 115.07520813 0.22793579 113.76821899 C0.22850949 110.29330333 0.21675241 106.8185258 0.20278788 103.34364223 C0.19028342 99.71081175 0.18911024 96.07797808 0.18673706 92.44512939 C0.18052145 85.56745122 0.16410955 78.68983665 0.14403808 71.81218648 C0.12168159 63.98153824 0.11068628 56.15088696 0.10064721 48.32021475 C0.07974339 32.21343927 0.04456585 16.10672775 0 0 Z " fill="#0A863C" transform="translate(735,0)"/>
<path d="M0 0 C14.62836497 -0.0636939 29.24892139 0.125703 43.875 0.375 C45.10814941 0.39578613 46.34129883 0.41657227 47.61181641 0.43798828 C70.22922377 0.82571526 92.84281164 1.35200279 115.45597076 1.93482208 C117.98867031 1.99970973 120.52139894 2.06333043 123.05413818 2.12664795 C127.07417597 2.2274755 131.09409258 2.33225808 135.11394882 2.44007492 C136.5953762 2.47933748 138.07683412 2.51746783 139.55832291 2.55434036 C147.73791796 2.75927024 155.86112323 3.11827052 164 4 C164 4.33 164 4.66 164 5 C146.53464717 5.02350763 129.06929939 5.04106595 111.60393429 5.05181217 C103.49189152 5.05693758 95.37985866 5.06390739 87.26782227 5.07543945 C80.18573151 5.08550243 73.10364794 5.09188062 66.02155024 5.09408849 C62.28223533 5.09537619 58.54294096 5.09833553 54.80363274 5.10573006 C41.13176505 5.13155673 27.46342481 5.13257039 13.79907227 4.61889648 C12.8673693 4.58842004 11.93566633 4.55794359 10.97572994 4.52654362 C6.58911656 4.33012795 2.99042832 4.03229489 -1 2 C-0.67 1.34 -0.34 0.68 0 0 Z " fill="#277933" transform="translate(6,138)"/>
<path d="M0 0 C1.98 0 3.96 0 6 0 C5.69201674 1.48011371 5.378482 2.95907325 5.0625 4.4375 C4.88847656 5.26121094 4.71445313 6.08492188 4.53515625 6.93359375 C4 9 4 9 3 10 C2.90391337 11.64490549 2.87812213 13.29395691 2.87974548 14.94166565 C2.87837082 16.01163788 2.87699615 17.08161011 2.87557983 18.18400574 C2.87917511 19.36795425 2.88277039 20.55190277 2.88647461 21.77172852 C2.88632858 23.010578 2.88618256 24.24942749 2.8860321 25.52581787 C2.88661108 28.93269833 2.89164041 32.33951884 2.89860606 35.74638867 C2.90484007 39.30316826 2.90544344 42.85994858 2.90663147 46.41673279 C2.90974465 53.15636582 2.91795785 59.89598271 2.92798096 66.63560861 C2.93914252 74.30658398 2.94465265 81.97756011 2.94967639 89.64854157 C2.96014048 105.43237041 2.97773965 121.21618313 3 137 C2.01 136.67 1.02 136.34 0 136 C0 91.12 0 46.24 0 0 Z " fill="#028D40" transform="translate(0,0)"/>
<path d="M0 0 C2.50490287 0.00187015 5.00980611 0.00329122 7.51470947 0.00428772 C14.03779143 0.00806594 20.56085035 0.01785487 27.08392334 0.0289917 C33.7681855 0.03930802 40.45245088 0.04380701 47.13671875 0.04882812 C60.20053054 0.0594824 73.26432653 0.07630255 86.328125 0.09765625 C83.50175485 1.57278898 81.48025388 2.36563844 78.28295898 2.50732422 C77.47415787 2.5454422 76.66535675 2.58356018 75.83204651 2.62283325 C74.94258835 2.65319672 74.05313019 2.68356018 73.13671875 2.71484375 C72.18091415 2.75237762 71.22510956 2.7899115 70.24034119 2.82858276 C56.70538158 3.29924016 43.15919226 3.2507536 29.61787415 3.22622681 C27.36817294 3.22262026 25.11847817 3.22103009 22.86877441 3.2199707 C-0.32189343 3.20639923 -23.4949549 2.94835148 -46.671875 2.09765625 C-46.671875 1.76765625 -46.671875 1.43765625 -46.671875 1.09765625 C-31.10515728 0.12254237 -15.59378654 -0.03468225 0 0 Z " fill="#237833" transform="translate(645.671875,139.90234375)"/>
<path d="M0 0 C0 0.66 0 1.32 0 2 C3.63 2 7.26 2 11 2 C11 2.33 11 2.66 11 3 C-15.35455468 3.91744399 -41.69500851 4.09042797 -68.0625 4.0625 C-68.87640827 4.06164398 -69.69031654 4.06078796 -70.5288887 4.05990601 C-80.68594839 4.04843699 -90.84297271 4.02824831 -101 4 C-101 3.67 -101 3.34 -101 3 C-67.30090278 0.4514223 -33.78461434 -0.14914425 0 0 Z " fill="#339840" transform="translate(692,135)"/>
<path d="M0 0 C40.26 0 80.52 0 122 0 C122 0.66 122 1.32 122 2 C128.93 2 135.86 2 143 2 C143 2.33 143 2.66 143 3 C111.61144894 3.14618547 80.2561876 2.78268844 48.87591553 2.07287598 C43.32881546 1.94852629 37.78158985 1.83003632 32.234375 1.7109375 C21.48945885 1.47943781 10.74468737 1.24187091 0 1 C0 0.67 0 0.34 0 0 Z " fill="#437F33" transform="translate(120,140)"/>
<path d="M0 0 C0.66 0 1.32 0 2 0 C2.07003395 17.41959673 2.12296057 34.83914963 2.15543652 52.25885487 C2.17091544 60.34685277 2.19202445 68.43476327 2.22631836 76.52270508 C2.25618945 83.57091014 2.27556754 90.61905192 2.28226548 97.66731852 C2.28618166 101.40047741 2.29540625 105.13345523 2.31719017 108.86655617 C2.34129282 113.03066721 2.34197148 117.19446205 2.34057617 121.35864258 C2.351362 122.60085571 2.36214783 123.84306885 2.3732605 125.1229248 C2.36707451 126.82035576 2.36707451 126.82035576 2.36076355 128.55207825 C2.36352893 129.53747495 2.36629431 130.52287165 2.36914349 131.53812885 C1.93863033 134.40928317 1.28550198 135.27346052 -1 137 C-4.25360306 138.21545907 -7.46409881 138.12907578 -10.91015625 138.1328125 C-12.06580078 138.13410156 -13.22144531 138.13539063 -14.41210938 138.13671875 C-15.61673828 138.13285156 -16.82136719 138.12898437 -18.0625 138.125 C-19.24005859 138.12886719 -20.41761719 138.13273438 -21.63085938 138.13671875 C-28.80969159 138.12877317 -35.86504482 137.79812596 -43 137 C-43 136.67 -43 136.34 -43 136 C-38.8559889 135.83117701 -34.71175936 135.67075853 -30.56713867 135.51782227 C-29.15982506 135.46474349 -27.75259322 135.40944512 -26.34545898 135.35180664 C-24.31251659 135.26893235 -22.2794053 135.19428004 -20.24609375 135.12109375 C-19.02591553 135.0739624 -17.8057373 135.02683105 -16.54858398 134.97827148 C-12.94325157 135.00034748 -9.56208398 135.48147741 -6 136 C-3.33565384 135.20789709 -2.37843427 134.60508258 -0.90956306 132.2564888 C0.18193295 129.5486518 0.24614302 127.50208358 0.24050903 124.5836792 C0.24325836 123.48434052 0.24600769 122.38500183 0.24884033 121.25234985 C0.24164978 120.05113495 0.23445923 118.84992004 0.22705078 117.61230469 C0.22734283 116.34375641 0.22763489 115.07520813 0.22793579 113.76821899 C0.22850949 110.29330333 0.21675241 106.8185258 0.20278788 103.34364223 C0.19028342 99.71081175 0.18911024 96.07797808 0.18673706 92.44512939 C0.18052145 85.56745122 0.16410955 78.68983665 0.14403808 71.81218648 C0.12168159 63.98153824 0.11068628 56.15088696 0.10064721 48.32021475 C0.07974339 32.21343927 0.04456585 16.10672775 0 0 Z " fill="#069241" transform="translate(735,0)"/>
<path d="M0 0 C3.3995501 0.0103698 6.79910796 0.01482641 10.19866943 0.01983643 C16.82694441 0.03077031 23.45518548 0.04743513 30.08343506 0.06866455 C30.08343506 0.72866455 30.08343506 1.38866455 30.08343506 2.06866455 C10.16442834 4.16834118 -9.71925044 4.24525286 -29.72906494 4.19366455 C-30.73215824 4.1910965 -30.73215824 4.1910965 -31.75551605 4.18847656 C-40.14263535 4.16543337 -48.5296053 4.12491135 -56.91656494 4.06866455 C-56.91656494 3.73866455 -56.91656494 3.40866455 -56.91656494 3.06866455 C-52.29656494 3.06866455 -47.67656494 3.06866455 -42.91656494 3.06866455 C-42.91656494 2.40866455 -42.91656494 1.74866455 -42.91656494 1.06866455 C-28.64317321 -0.3181794 -14.32405672 -0.04840829 0 0 Z " fill="#4AA041" transform="translate(589.9165649414063,134.93133544921875)"/>
<path d="M0 0 C0 0.33 0 0.66 0 1 C-8.42483866 1.02340262 -16.84966323 1.04105483 -25.2745266 1.05181217 C-29.18856345 1.05698098 -33.10257771 1.06396623 -37.01660156 1.07543945 C-70.296403 1.17053406 -70.296403 1.17053406 -85 0 C-83 -2 -83 -2 -79.859375 -2.16015625 C-78.4894143 -2.13573232 -77.11959591 -2.10244849 -75.75 -2.0625 C-69.92985717 -1.96723073 -64.17183629 -2.05937247 -58.36083984 -2.40478516 C-38.93097526 -3.55105845 -19.24245939 -3.07759832 0 0 Z " fill="#199240" transform="translate(91,138)"/>
<path d="M0 0 C56.48333357 -0.21446412 56.48333357 -0.21446412 82 1 C82 1.66 82 2.32 82 3 C72.50703876 3.02323929 63.01408741 3.04097393 53.52110386 3.05181217 C49.11244764 3.05701574 44.70381098 3.0640672 40.29516602 3.07543945 C36.03522997 3.0863585 31.77531266 3.09229584 27.51536369 3.09487724 C25.89559573 3.09671531 24.27582872 3.10030441 22.6560688 3.10573006 C14.71074272 3.13126945 6.88412814 3.13415283 -1 2 C-0.67 1.34 -0.34 0.68 0 0 Z " fill="#3A9F42" transform="translate(76,135)"/>
<path d="M0 0 C12.55195413 -0.06794021 25.07884033 0.1287971 37.625 0.5 C39.32551423 0.54840975 41.02603507 0.59658773 42.7265625 0.64453125 C46.81778903 0.76036629 50.90891489 0.87927735 55 1 C55 1.33 55 1.66 55 2 C50.38 2 45.76 2 41 2 C41.495 3.485 41.495 3.485 42 5 C32.94913288 5.12868531 23.92014825 4.96180645 14.875 4.625 C13.87976318 4.59414307 12.88452637 4.56328613 11.85913086 4.53149414 C10.4399939 4.47336548 10.4399939 4.47336548 8.9921875 4.4140625 C8.15026855 4.3826416 7.30834961 4.3512207 6.44091797 4.31884766 C3.71032493 3.96216087 1.50746659 3.11635703 -1 2 C-0.67 1.34 -0.34 0.68 0 0 Z " fill="#0C7936" transform="translate(6,138)"/>
<path d="M0 0 C13.53 0 27.06 0 41 0 C37.39222766 1.80388617 36.10774683 2.26643109 32.32421875 2.4140625 C31.42010254 2.45281494 30.51598633 2.49156738 29.58447266 2.53149414 C28.62847168 2.56235107 27.6724707 2.59320801 26.6875 2.625 C25.71087402 2.66294678 24.73424805 2.70089355 23.72802734 2.73999023 C15.81634856 3.02640054 7.91591875 3.11097082 0 3 C0 2.01 0 1.02 0 0 Z " fill="#0C7333" transform="translate(691,140)"/>
<path d="M0 0 C0 0.66 0 1.32 0 2 C3.63 2 7.26 2 11 2 C11 2.33 11 2.66 11 3 C-6.16 3 -23.32 3 -41 3 C-41 2.67 -41 2.34 -41 2 C-36.28620997 1.71248519 -31.572263 1.42774953 -26.8581543 1.14550781 C-25.25687202 1.04925322 -23.65563397 0.95225979 -22.05444336 0.85449219 C-19.74344129 0.71351603 -17.43228946 0.57526073 -15.12109375 0.4375 C-14.0597245 0.37187866 -14.0597245 0.37187866 -12.97691345 0.30493164 C-8.63997969 0.04961958 -4.34161361 -0.03967208 0 0 Z " fill="#209841" transform="translate(692,135)"/>
</svg>
